# xmcd
#
# Track frame offsets:
#	150
#	19130
#	39479
#	70853
#	93318
#	109540
#	129315
#	147776
#	168125
#	185342
#	205506
#
# Disc length: 3108 seconds
#
# Revision: 2
# Processed by: cddbd v1.5.1PL0 Copyright (c) Steve Scherf et al.
# Submitted via: EasyCDDAExtractor 7.0.6.1
#
DISCID=850c220b
DTITLE=L.A.D. featuring Darvy Traylor - Ridin' low
DYEAR=1995
DGENRE=Blues
TTITLE0=Ridin' low
TTITLE1=Party nite
TTITLE2=City of angels
TTITLE3=Ghetto
TTITLE4=Runaway
TTITLE5=Just for da funk
TTITLE6=Me and Mrs Jane
TTITLE7=Listen up
TTITLE8=I' ve got nothing
TTITLE9=West coast thang
TTITLE10=Ridin' low (Joy ride version)
EXTD=
EXTT0=
EXTT1=
EXTT2=
EXTT3=
EXTT4=
EXTT5=
EXTT6=
EXTT7=
EXTT8=
EXTT9=
EXTT10=
PLAYORDER=
